<?xml version="1.0" encoding="UTF-8"?>
<svg xmlns="http://www.w3.org/2000/svg" xmlns:xlink="http://www.w3.org/1999/xlink" viewBox="0 0 30 30" width="30px" height="30px">
<g id="surface7141289">
<path style=" stroke:none;fill-rule:nonzero;fill:rgb(40.000001%,40.000001%,40.000001%);fill-opacity:1;" d="M 3.59375 2.996094 C 3.566406 2.996094 3.542969 2.996094 3.515625 3 L 3 3 L 3 3.519531 C 2.992188 3.570312 2.992188 3.625 3 3.675781 L 3 10.199219 C 2.996094 10.417969 3.109375 10.617188 3.296875 10.726562 C 3.484375 10.835938 3.714844 10.835938 3.902344 10.726562 C 4.089844 10.617188 4.203125 10.417969 4.199219 10.199219 L 4.199219 5.046875 L 12.175781 13.023438 C 12.304688 13.15625 12.484375 13.222656 12.664062 13.207031 C 12.683594 13.203125 12.703125 13.203125 12.722656 13.199219 C 12.945312 13.15625 13.121094 12.992188 13.183594 12.777344 C 13.246094 12.5625 13.1875 12.332031 13.023438 12.175781 L 5.046875 4.199219 L 10.199219 4.199219 C 10.417969 4.203125 10.617188 4.089844 10.726562 3.902344 C 10.835938 3.714844 10.835938 3.484375 10.726562 3.296875 C 10.617188 3.109375 10.417969 2.996094 10.199219 3 L 3.671875 3 C 3.644531 2.996094 3.621094 2.996094 3.59375 2.996094 Z M 26.386719 2.996094 C 26.367188 2.996094 26.34375 2.996094 26.320312 3 L 19.800781 3 C 19.582031 2.996094 19.382812 3.109375 19.273438 3.296875 C 19.164062 3.484375 19.164062 3.714844 19.273438 3.902344 C 19.382812 4.089844 19.582031 4.203125 19.800781 4.199219 L 24.953125 4.199219 L 16.976562 12.175781 C 16.820312 12.328125 16.757812 12.550781 16.8125 12.761719 C 16.867188 12.96875 17.03125 13.132812 17.238281 13.1875 C 17.449219 13.242188 17.671875 13.179688 17.824219 13.023438 L 25.800781 5.046875 L 25.800781 10.199219 C 25.796875 10.417969 25.910156 10.617188 26.097656 10.726562 C 26.285156 10.835938 26.515625 10.835938 26.703125 10.726562 C 26.890625 10.617188 27.003906 10.417969 27 10.199219 L 27 3.675781 C 27.007812 3.621094 27.007812 3.566406 27 3.511719 L 27 3 L 26.488281 3 C 26.453125 2.996094 26.421875 2.992188 26.386719 2.992188 Z M 12.589844 16.792969 C 12.433594 16.796875 12.285156 16.863281 12.175781 16.976562 L 4.199219 24.953125 L 4.199219 19.800781 C 4.203125 19.636719 4.140625 19.480469 4.023438 19.367188 C 3.910156 19.253906 3.753906 19.1875 3.589844 19.191406 C 3.257812 19.195312 2.996094 19.46875 3 19.800781 L 3 26.308594 C 2.988281 26.375 2.988281 26.441406 3 26.507812 L 3 27 L 3.496094 27 C 3.558594 27.011719 3.625 27.011719 3.691406 27 L 10.199219 27 C 10.417969 27.003906 10.617188 26.890625 10.726562 26.703125 C 10.835938 26.515625 10.835938 26.285156 10.726562 26.097656 C 10.617188 25.910156 10.417969 25.796875 10.199219 25.800781 L 5.046875 25.800781 L 13.023438 17.824219 C 13.203125 17.652344 13.253906 17.386719 13.160156 17.160156 C 13.0625 16.933594 12.835938 16.785156 12.589844 16.792969 Z M 17.394531 16.792969 C 17.15625 16.792969 16.941406 16.933594 16.847656 17.148438 C 16.75 17.363281 16.789062 17.617188 16.945312 17.792969 C 16.957031 17.804688 16.964844 17.8125 16.976562 17.824219 L 24.953125 25.800781 L 19.800781 25.800781 C 19.582031 25.796875 19.382812 25.910156 19.273438 26.097656 C 19.164062 26.285156 19.164062 26.515625 19.273438 26.703125 C 19.382812 26.890625 19.582031 27.003906 19.800781 27 L 26.308594 27 C 26.375 27.011719 26.441406 27.011719 26.507812 27 L 27 27 L 27 26.503906 C 27.011719 26.441406 27.011719 26.375 27 26.308594 L 27 19.800781 C 27.003906 19.636719 26.9375 19.480469 26.824219 19.367188 C 26.710938 19.253906 26.554688 19.1875 26.390625 19.191406 C 26.058594 19.195312 25.796875 19.46875 25.800781 19.800781 L 25.800781 24.953125 L 17.824219 16.976562 C 17.710938 16.859375 17.554688 16.792969 17.394531 16.792969 Z M 17.394531 16.792969 "/>
</g>
</svg>
