<?xml version="1.0" encoding="UTF-8"?>
<svg xmlns="http://www.w3.org/2000/svg" xmlns:xlink="http://www.w3.org/1999/xlink" viewBox="0 0 50 50" width="50px" height="50px">
<g id="surface6885070">
<path style=" stroke:none;fill-rule:nonzero;fill:rgb(40.000001%,40.000001%,40.000001%);fill-opacity:1;" d="M 30 48 C 29.820312 48 29.644531 47.953125 29.484375 47.855469 L 19.484375 41.855469 C 19.183594 41.675781 19 41.351562 19 41 L 19 23.394531 L 3.273438 6.6875 C 3.097656 6.5 3 6.253906 3 6 L 3 3 C 3 2.449219 3.449219 2 4 2 L 46 2 C 46.550781 2 47 2.449219 47 3 L 47 6 C 47 6.253906 46.902344 6.5 46.726562 6.6875 L 31 23.394531 L 31 47 C 31 47.359375 30.804688 47.691406 30.492188 47.871094 C 30.339844 47.957031 30.171875 48 30 48 Z M 46 6 L 46.011719 6 Z M 46 6 "/>
</g>
</svg>
